<svg xmlns="http://www.w3.org/2000/svg" viewBox="0 0 1600 900" preserveAspectRatio="xMidYMid slice">
  <defs>
    <linearGradient id="sky" x1="0" y1="0" x2="0" y2="1">
      <stop offset="0" stop-color="#f7f2ea"/>
      <stop offset="1" stop-color="#e9ddc8"/>
    </linearGradient>
    <linearGradient id="sea" x1="0" y1="0" x2="0" y2="1">
      <stop offset="0" stop-color="#14424f"/>
      <stop offset="1" stop-color="#0d2f39"/>
    </linearGradient>
  </defs>
  <rect width="1600" height="900" fill="url(#sky)"/>
  <!-- sole -->
  <circle cx="1280" cy="190" r="95" fill="#e8a87c" opacity="0.85"/>
  <!-- skyline di Castello stilizzato -->
  <g fill="#c4602e" opacity="0.18">
    <rect x="80" y="430" width="130" height="290"/>
    <rect x="230" y="370" width="90" height="350"/>
    <rect x="340" y="470" width="150" height="250"/>
    <rect x="510" y="400" width="110" height="320"/>
    <rect x="640" y="350" width="70" height="370"/>
    <rect x="730" y="450" width="140" height="270"/>
    <rect x="890" y="390" width="100" height="330"/>
    <rect x="1010" y="470" width="130" height="250"/>
    <rect x="1160" y="420" width="90" height="300"/>
    <rect x="1270" y="480" width="150" height="240"/>
    <rect x="1440" y="410" width="100" height="310"/>
    <!-- torre -->
    <rect x="655" y="280" width="40" height="80"/>
  </g>
  <g fill="#14424f" opacity="0.28">
    <rect x="0" y="540" width="180" height="180"/>
    <rect x="200" y="500" width="120" height="220"/>
    <rect x="340" y="560" width="170" height="160"/>
    <rect x="530" y="520" width="130" height="200"/>
    <rect x="680" y="480" width="90" height="240"/>
    <rect x="790" y="550" width="160" height="170"/>
    <rect x="970" y="510" width="120" height="210"/>
    <rect x="1110" y="560" width="150" height="160"/>
    <rect x="1280" y="520" width="110" height="200"/>
    <rect x="1410" y="555" width="190" height="165"/>
  </g>
  <!-- mare -->
  <rect y="720" width="1600" height="180" fill="url(#sea)" opacity="0.9"/>
  <g stroke="#f7f2ea" stroke-width="3" opacity="0.25" fill="none">
    <path d="M0 770 Q 100 760 200 770 T 400 770 T 600 770 T 800 770 T 1000 770 T 1200 770 T 1400 770 T 1600 770"/>
    <path d="M0 820 Q 100 810 200 820 T 400 820 T 600 820 T 800 820 T 1000 820 T 1200 820 T 1400 820 T 1600 820"/>
  </g>
</svg>
