<svg xmlns="http://www.w3.org/2000/svg" viewBox="0 0 800 600" preserveAspectRatio="xMidYMid slice">
  <rect width="800" height="600" fill="#efe6d8"/>
  <!-- finestra con vista -->
  <rect x="480" y="80" width="220" height="260" rx="10" fill="#f7f2ea" stroke="#c4602e" stroke-width="6"/>
  <rect x="492" y="92" width="196" height="140" fill="#bcd4d9"/>
  <g fill="#c4602e" opacity="0.5">
    <rect x="500" y="180" width="40" height="52"/>
    <rect x="550" y="160" width="30" height="72"/>
    <rect x="590" y="190" width="45" height="42"/>
    <rect x="645" y="170" width="35" height="62"/>
  </g>
  <circle cx="660" cy="120" r="18" fill="#e8a87c"/>
  <line x1="590" y1="92" x2="590" y2="340" stroke="#c4602e" stroke-width="5"/>
  <line x1="492" y1="232" x2="688" y2="232" stroke="#c4602e" stroke-width="5"/>
  <!-- letto -->
  <rect x="80" y="330" width="360" height="170" rx="14" fill="#14424f"/>
  <rect x="80" y="300" width="360" height="60" rx="14" fill="#f7f2ea" stroke="#14424f" stroke-width="4"/>
  <rect x="105" y="250" width="120" height="70" rx="12" fill="#e8a87c"/>
  <rect x="245" y="250" width="120" height="70" rx="12" fill="#e8a87c"/>
  <rect x="60" y="200" width="400" height="20" rx="8" fill="#a64c20"/>
  <rect x="60" y="200" width="14" height="300" rx="6" fill="#a64c20"/>
  <rect x="446" y="200" width="14" height="300" rx="6" fill="#a64c20"/>
  <!-- comodino e lampada -->
  <rect x="520" y="420" width="90" height="80" rx="8" fill="#a64c20"/>
  <line x1="565" y1="420" x2="565" y2="380" stroke="#1f2933" stroke-width="5"/>
  <path d="M535 380 L595 380 L580 345 L550 345 Z" fill="#e8a87c"/>
  <!-- pavimento -->
  <rect y="500" width="800" height="100" fill="#d9c8ab"/>
  <text x="400" y="565" text-anchor="middle" font-family="Georgia, serif" font-size="26" fill="#1f2933" opacity="0.55">Camera Castello — foto in arrivo</text>
</svg>
