<svg xmlns="http://www.w3.org/2000/svg" viewBox="0 0 800 600" preserveAspectRatio="xMidYMid slice">
  <rect width="800" height="600" fill="#e8eef0"/>
  <!-- oblò / finestra rotonda con mare -->
  <circle cx="600" cy="190" r="110" fill="#bcd4d9" stroke="#14424f" stroke-width="8"/>
  <path d="M495 210 Q 530 200 565 210 T 635 210 T 705 210 L705 295 Q 600 305 495 295 Z" fill="#14424f" opacity="0.7"/>
  <circle cx="640" cy="140" r="16" fill="#e8a87c"/>
  <path d="M560 175 l14 10 l14 -10" stroke="#f7f2ea" stroke-width="4" fill="none"/>
  <path d="M600 160 l14 10 l14 -10" stroke="#f7f2ea" stroke-width="4" fill="none"/>
  <!-- letto -->
  <rect x="80" y="330" width="360" height="170" rx="14" fill="#2e6573"/>
  <rect x="80" y="300" width="360" height="60" rx="14" fill="#ffffff" stroke="#2e6573" stroke-width="4"/>
  <rect x="105" y="250" width="120" height="70" rx="12" fill="#c4602e"/>
  <rect x="245" y="250" width="120" height="70" rx="12" fill="#c4602e"/>
  <rect x="60" y="200" width="400" height="20" rx="8" fill="#14424f"/>
  <rect x="60" y="200" width="14" height="300" rx="6" fill="#14424f"/>
  <rect x="446" y="200" width="14" height="300" rx="6" fill="#14424f"/>
  <!-- poltrona angolo lettura -->
  <rect x="540" y="400" width="150" height="100" rx="18" fill="#c4602e"/>
  <rect x="540" y="350" width="40" height="110" rx="14" fill="#a64c20"/>
  <rect x="650" y="350" width="40" height="110" rx="14" fill="#a64c20"/>
  <!-- pavimento -->
  <rect y="500" width="800" height="100" fill="#cfdbdc"/>
  <text x="400" y="565" text-anchor="middle" font-family="Georgia, serif" font-size="26" fill="#1f2933" opacity="0.55">Camera Marina — foto in arrivo</text>
</svg>
